<svg width="9" height="7" viewBox="0 0 9 7" fill="none" xmlns="http://www.w3.org/2000/svg">
<path d="M1.36719 2.25781C1.36719 2.24609 1.36719 2.21875 1.36719 2.19922C1.36719 1.77344 1.67969 1.41016 2.17578 1.41016C2.62891 1.41016 2.96484 1.70312 2.96484 2.15625C2.96484 2.55859 2.71875 2.875 2.37109 3.24219L0.433594 5.34375V6H4.10547V5.14062H1.87109V5.10938L3.07422 3.75781C3.6875 3.10156 4.01172 2.67969 4.01172 2.05859C4.01172 1.1875 3.29688 0.566406 2.22266 0.566406C1.08594 0.566406 0.367188 1.30859 0.367188 2.20703V2.25781H1.36719ZM6.74609 5.33984C6.16797 5.33984 5.73047 4.98828 5.73047 4.46484C5.73047 3.94141 6.16797 3.58203 6.74609 3.58203C7.32031 3.58203 7.76172 3.94141 7.76172 4.46484C7.76172 4.98828 7.32031 5.33984 6.74609 5.33984ZM6.74609 2.86328C6.26172 2.86328 5.90234 2.54688 5.90234 2.09375C5.90234 1.64062 6.26172 1.33594 6.74609 1.33594C7.23047 1.33594 7.58984 1.64062 7.58984 2.09375C7.58984 2.54688 7.23047 2.86328 6.74609 2.86328ZM6.73438 6.10156C7.98438 6.10156 8.80859 5.45703 8.80859 4.53125C8.80859 3.69141 8.17578 3.30078 7.69141 3.20312V3.17188C8.13281 3.03516 8.59766 2.67188 8.59766 1.97656C8.59766 1.16406 7.85938 0.566406 6.74609 0.566406C5.63281 0.566406 4.89453 1.16406 4.89453 1.97656C4.89453 2.66406 5.34375 3.03125 5.79688 3.17188V3.20312C5.31641 3.30078 4.67969 3.6875 4.67969 4.53516C4.67969 5.46094 5.48828 6.10156 6.73438 6.10156Z" fill="#D5D5D5"/>
</svg>
